<svg width="16" height="16" viewBox="0 0 16 16" fill="none" xmlns="http://www.w3.org/2000/svg">
<path fill-rule="evenodd" clip-rule="evenodd" d="M4.6665 4.66665C4.6665 2.8257 6.15889 1.33331 7.99984 1.33331C9.84079 1.33331 11.3332 2.8257 11.3332 4.66665V5.33331H11.9998C12.7362 5.33331 13.3332 5.93027 13.3332 6.66665V12C13.3332 12.7364 12.7362 13.3333 11.9998 13.3333H3.99984C3.26346 13.3333 2.6665 12.7364 2.6665 12V6.66665C2.6665 5.93027 3.26346 5.33331 3.99984 5.33331H4.6665V4.66665ZM9.99984 4.66665V5.33331H5.99984V4.66665C5.99984 3.56208 6.89527 2.66665 7.99984 2.66665C9.10441 2.66665 9.99984 3.56208 9.99984 4.66665ZM7.99984 10.6666C8.73622 10.6666 9.33317 10.0697 9.33317 9.33331C9.33317 8.59693 8.73622 7.99998 7.99984 7.99998C7.26346 7.99998 6.6665 8.59693 6.6665 9.33331C6.6665 10.0697 7.26346 10.6666 7.99984 10.6666Z" fill="#50555C"/>
</svg>
