<svg width="18" height="17" viewBox="0 0 18 17" fill="none" xmlns="http://www.w3.org/2000/svg">
<path d="M16.3499 3.86991H12.3599C12.1299 2.19991 10.7099 0.909912 8.98989 0.909912C7.26989 0.909912 5.84989 2.20991 5.61989 3.86991H1.63989C1.22989 3.86991 0.889893 4.20991 0.889893 4.61991C0.889893 5.02991 1.22989 5.36991 1.63989 5.36991H2.23989V14.6899C2.23989 15.9399 3.24989 16.9499 4.50989 16.9499H13.5099C14.7599 16.9499 15.7799 15.9399 15.7799 14.6899V5.36991H16.3699C16.7799 5.36991 17.1199 5.02991 17.1199 4.61991C17.1199 4.20991 16.7699 3.86991 16.3499 3.86991ZM14.2599 14.6899C14.2599 15.1099 13.9199 15.4499 13.4899 15.4499H4.48989C4.06989 15.4499 3.71989 15.1099 3.71989 14.6899V5.40991H14.2499V14.6899H14.2599ZM8.98989 2.41991C9.88989 2.41991 10.6399 3.03991 10.8499 3.87991H7.12989C7.33989 3.03991 8.08989 2.41991 8.98989 2.41991Z" fill="#50555C"/>
<path d="M5.59985 14.2898C6.00985 14.2898 6.34985 13.9498 6.34985 13.5398V7.32983C6.34985 6.91983 6.00985 6.57983 5.59985 6.57983C5.18985 6.57983 4.84985 6.91983 4.84985 7.32983V13.5398C4.84985 13.9498 5.18985 14.2898 5.59985 14.2898Z" fill="#50555C"/>
<path d="M8.98999 14.2898C9.39999 14.2898 9.73999 13.9498 9.73999 13.5398V7.32983C9.73999 6.91983 9.39999 6.57983 8.98999 6.57983C8.57999 6.57983 8.23999 6.91983 8.23999 7.32983V13.5398C8.23999 13.9498 8.57999 14.2898 8.98999 14.2898Z" fill="#50555C"/>
<path d="M12.3999 14.2898C12.8099 14.2898 13.1499 13.9498 13.1499 13.5398V7.32983C13.1499 6.91983 12.8099 6.57983 12.3999 6.57983C11.9899 6.57983 11.6499 6.91983 11.6499 7.32983V13.5398C11.6499 13.9498 11.9799 14.2898 12.3999 14.2898Z" fill="#50555C"/>
</svg>