<svg width="100" height="20" viewBox="0 0 80 16" fill="none" xmlns="http://www.w3.org/2000/svg">
<g clip-path="url(#clip0_19_130)">
<path fill-rule="evenodd" clip-rule="evenodd" d="M10.4666 9.28832L7.94496 10.4218L7.53152 11.0118C7.51104 11.0413 7.47136 11.0483 7.44192 11.0278L4.92864 9.26784C4.8992 9.24736 4.89216 9.20704 4.91264 9.17824L5.32928 8.59008L5.53216 5.83296C5.536 5.78304 5.59232 5.75616 5.63328 5.78496L10.4774 9.17696C10.5184 9.20576 10.512 9.26784 10.4666 9.28832ZM6.8928 11.3926L6.51008 11.9398C6.49088 11.9622 6.45888 11.9706 6.432 11.9706L3.43168 11.9718C3.39136 11.9578 3.37536 11.9091 3.39968 11.8739L4.77632 9.91104C4.7968 9.88224 4.83712 9.87521 4.86592 9.89504L6.8768 11.303C6.90624 11.3235 6.91328 11.3638 6.8928 11.3926ZM9.5456 0L5.90592 5.19808C5.8784 5.23776 5.888 5.29216 5.92704 5.31968L10.8134 8.74112C10.8531 8.76928 10.9082 8.75968 10.9357 8.72L15.2864 2.5056C15.3344 2.72512 15.36 2.95296 15.36 3.18592V12.1741C15.36 13.9341 13.9334 15.36 12.1741 15.36H3.18592C1.42592 15.36 0 13.9334 0 12.1741V3.18592C0 1.42592 1.42656 0 3.18592 0H9.5456ZM25.4496 1.26144V10.7469H30.7405V13.879H21.7056V1.2608L25.4496 1.26144ZM37.3446 1.26144V13.8784H33.6V1.26144H37.344H37.3446ZM43.408 1.26144L48.7539 8.29952V1.2608H52.1734V13.8784H48.9875L43.6422 6.85888V13.8784H40.2042V1.2608L43.408 1.26144ZM65.3466 1.26144V4.14144H58.777V6.1216H64.7347V9.0016H58.777V10.999H65.5264V13.879H55.0336V1.2608L65.3466 1.26144ZM74.272 1.26144L74.5229 1.26464C76.0941 1.30176 77.3216 1.69088 78.2048 2.43136L78.3347 2.54528C79.1776 3.31776 79.6 4.38336 79.6 5.74336L79.5962 5.97184C79.568 6.8 79.3862 7.52448 79.0509 8.14592L78.9562 8.31232C78.5958 8.91264 78.103 9.39392 77.4758 9.75744L80.0314 13.879H75.7837L74.1101 10.4768H72.1306V13.879H68.3866V1.2608L74.272 1.26144ZM74.272 4.14144H72.1306V7.59744H74.272L74.4224 7.5936C74.9139 7.56864 75.2992 7.42016 75.577 7.14688L75.657 7.0624C75.9098 6.768 76.0358 6.3648 76.0358 5.85152L76.032 5.70432C76.0064 5.22432 75.8554 4.84992 75.5776 4.5824L75.4906 4.5056C75.191 4.26304 74.7846 4.14144 74.272 4.14144Z" fill="url(#paint0_linear_19_130)"/>
</g>
<defs>
<linearGradient id="paint0_linear_19_130" x1="10.5329" y1="7.96294" x2="76.9131" y2="-6.70984" gradientUnits="userSpaceOnUse">
<stop stop-color="#00B1E2"/>
<stop offset="1" stop-color="#00D4B7"/>
</linearGradient>
<clipPath id="clip0_19_130">
<rect width="80" height="15.36" fill="white"/>
</clipPath>
</defs>
</svg>