<svg width="16" height="16" viewBox="0 0 16 16" fill="none" xmlns="http://www.w3.org/2000/svg">
<path d="M12.8099 2.01001C13.6399 2.01001 14.3099 2.68001 14.3099 3.51001V9.38001C14.3099 10.21 13.6399 10.88 12.8099 10.88H10.8999C10.3999 10.88 9.92994 11.13 9.64994 11.55L7.99994 14.04L6.34994 11.56C6.06994 11.14 5.59994 10.89 5.09994 10.89H3.18994C2.35994 10.89 1.68994 10.22 1.68994 9.39001V3.51001C1.68994 2.68001 2.35994 2.01001 3.18994 2.01001H12.8099ZM12.8099 0.51001H3.18994C1.52994 0.51001 0.189941 1.85001 0.189941 3.51001V9.38001C0.189941 11.04 1.52994 12.38 3.18994 12.38H5.09994L7.03994 15.29C7.26994 15.63 7.63994 15.81 8.00994 15.81C8.37994 15.81 8.74994 15.64 8.97994 15.29L10.9199 12.38H12.8299C14.4899 12.38 15.8299 11.04 15.8299 9.38001V3.51001C15.8099 1.85001 14.4699 0.51001 12.8099 0.51001Z" fill="#50555C"/>
<path d="M4.86995 5.52002C4.35995 5.52002 3.94995 5.93002 3.94995 6.44002C3.94995 6.95002 4.35995 7.36002 4.86995 7.36002C5.37995 7.36002 5.78995 6.95002 5.78995 6.44002C5.78995 5.93002 5.37995 5.52002 4.86995 5.52002Z" fill="#50555C"/>
<path d="M7.99983 5.52002C7.48983 5.52002 7.07983 5.93002 7.07983 6.44002C7.07983 6.95002 7.48983 7.36002 7.99983 7.36002C8.50983 7.36002 8.91983 6.95002 8.91983 6.44002C8.91983 5.93002 8.50983 5.52002 7.99983 5.52002Z" fill="#50555C"/>
<path d="M11.12 5.52002C10.61 5.52002 10.2 5.93002 10.2 6.44002C10.2 6.95002 10.61 7.36002 11.12 7.36002C11.63 7.36002 12.04 6.95002 12.04 6.44002C12.04 5.93002 11.63 5.52002 11.12 5.52002Z" fill="#50555C"/>
</svg>