<svg width="16" height="16" viewBox="0 0 16 16" fill="none" xmlns="http://www.w3.org/2000/svg">
<path d="M8.00016 1.33331C4.32016 1.33331 1.3335 4.31998 1.3335 7.99998C1.3335 11.68 4.32016 14.6666 8.00016 14.6666C11.6802 14.6666 14.6668 11.68 14.6668 7.99998C14.6668 4.31998 11.6802 1.33331 8.00016 1.33331ZM7.3335 13.2866C4.70016 12.96 2.66683 10.72 2.66683 7.99998C2.66683 7.58665 2.72016 7.19331 2.80683 6.80665L6.00016 9.99998V10.6666C6.00016 11.4 6.60016 12 7.3335 12V13.2866ZM11.9335 11.5933C11.7602 11.0533 11.2668 10.6666 10.6668 10.6666H10.0002V8.66665C10.0002 8.29998 9.70016 7.99998 9.3335 7.99998H5.3335V6.66665H6.66683C7.0335 6.66665 7.3335 6.36665 7.3335 5.99998V4.66665H8.66683C9.40016 4.66665 10.0002 4.06665 10.0002 3.33331V3.05998C11.9535 3.85331 13.3335 5.76665 13.3335 7.99998C13.3335 9.38665 12.8002 10.6466 11.9335 11.5933Z" fill="#50555C"/>
</svg>
