<svg width="16" height="16" viewBox="0 0 16 16" fill="none" xmlns="http://www.w3.org/2000/svg">
    <path fill-rule="evenodd" clip-rule="evenodd" d="M9.86955 0.219635L6.69192 4.75749C6.68483 4.76753 6.67978 4.77887 6.67708 4.79085C6.67437 4.80284 6.67406 4.81525 6.67616 4.82736C6.67825 4.83947 6.68272 4.85104 6.6893 4.86142C6.69588 4.8718 6.70444 4.88078 6.7145 4.88785L11.9389 8.54597C11.949 8.55312 11.9604 8.5582 11.9725 8.56091C11.9845 8.56362 11.997 8.56391 12.0092 8.56176C12.0214 8.55961 12.033 8.55507 12.0434 8.54839C12.0538 8.54172 12.0628 8.53304 12.0698 8.52288L15.0655 4.24447C15.662 5.3643 16 6.64267 16 8C16 12.4183 12.4183 16 8 16C3.58172 16 0 12.4183 0 8C0 3.58172 3.58172 0 8 0C8.64378 0 9.26979 0.0760423 9.86955 0.219635ZM8.8715 10.3427L11.5684 9.13051C11.6171 9.10844 11.6233 9.04224 11.5797 9.01145L6.39991 5.38514C6.38995 5.37824 6.37835 5.37408 6.36628 5.3731C6.3542 5.37212 6.34208 5.37435 6.33114 5.37956C6.3202 5.38477 6.31084 5.39277 6.30399 5.40276C6.29714 5.41276 6.29305 5.42438 6.29213 5.43646L6.07556 8.38482L5.6301 9.01299C5.61972 9.02799 5.61567 9.04648 5.61884 9.06445C5.62201 9.08242 5.63215 9.09841 5.64704 9.10896L8.33418 10.9909C8.34158 10.9961 8.34995 10.9998 8.35878 11.0017C8.36762 11.0037 8.37676 11.0039 8.38568 11.0023C8.3946 11.0008 8.40311 10.9974 8.41074 10.9926C8.41838 10.9877 8.42497 10.9814 8.43015 10.9739L8.8715 10.3427ZM7.74707 11.3809L7.33805 11.966C7.31752 11.9901 7.28313 11.9983 7.25439 11.9983L4.04686 11.9998C4.03672 11.9964 4.02752 11.9907 4.01998 11.9831C4.01244 11.9755 4.00677 11.9663 4.00343 11.9561C4.00009 11.9459 3.99917 11.9351 4.00075 11.9246C4.00232 11.914 4.00633 11.9039 4.01248 11.8951L5.48435 9.79665C5.48953 9.78922 5.49612 9.78289 5.50375 9.77802C5.51138 9.77314 5.5199 9.76982 5.52882 9.76825C5.53773 9.76667 5.54687 9.76688 5.55571 9.76885C5.56455 9.77081 5.57291 9.77451 5.58032 9.77972L7.73065 11.2855C7.76144 11.307 7.76862 11.3501 7.74707 11.3809Z" fill="#00C3CC"/>
  </svg>